<svg width="820" height="515" viewBox="0 0 820 515" fill="none" xmlns="http://www.w3.org/2000/svg">
<mask id="mask0_1427_10679" style="mask-type:alpha" maskUnits="userSpaceOnUse" x="0" y="0" width="820" height="515">
<rect width="820" height="515" fill="#F2F4F8"/>
</mask>
<g mask="url(#mask0_1427_10679)">
<g opacity="0.5">
<path d="M826 110C1049.68 110 1231 291.325 1231 515C1231 738.675 1049.68 920 826 920C602.325 920 421 738.675 421 515C421 291.325 602.325 110 826 110ZM826 697.664C926.882 697.664 1008.66 615.882 1008.66 515C1008.66 414.117 926.882 332.336 826 332.336C725.117 332.336 643.336 414.117 643.336 515C643.336 615.882 725.117 697.664 826 697.664Z" fill="url(#paint0_linear_1427_10679)" fill-opacity="0.43"/>
<path d="M826 110C1049.68 110 1231 291.325 1231 515M421 515C421 549.512 425.317 583.015 433.44 615M469.315 707C537.725 833.822 671.798 920 826 920C985.811 920 1124 827.437 1189.89 693" stroke="white"/>
<path d="M826 245C676.883 245 556 365.883 556 515C556 664.117 676.883 785 826 785C886.289 785 941.962 765.24 986.897 731.844M896.031 254.171C1011.2 285.015 1096 390.104 1096 515C1096 536.642 1093.45 557.69 1088.64 577.859" stroke="white" stroke-width="0.84375"/>
<path d="M622.72 567.904C618.334 551.002 616 533.274 616 515C616 399.02 710.02 305 826 305C865.76 305 902.939 316.05 934.635 335.246M746.038 709.24C770.685 719.397 797.688 725 826 725C856.336 725 885.17 718.568 911.212 706.992M939.885 691.468C997.722 654.065 1036 589.003 1036 515C1036 468.806 1021.09 426.097 995.808 391.423" stroke="white" stroke-width="0.807692"/>
<path d="M681.019 363.077C651.754 391.013 630.548 427.319 621.244 468.154M786.826 721.353C799.517 723.747 812.612 725 826 725C847.8 725 868.825 721.678 888.595 715.513" stroke="white" stroke-width="3.23077"/>
<path d="M981.002 515C981.002 600.604 911.606 670 826.002 670C740.398 670 671.002 600.604 671.002 515C671.002 429.396 740.398 360 826.002 360C890.291 360 945.438 399.14 968.915 454.89" stroke="white" stroke-width="0.756098"/>
<path d="M826 655C903.32 655 966 592.32 966 515C966 437.68 903.32 375 826 375C748.68 375 686 437.68 686 515" stroke="white" stroke-width="0.736842"/>
<circle cx="825.998" cy="515" r="49.75" transform="rotate(-90 825.998 515)" stroke="white" stroke-width="0.5"/>
</g>
</g>
<defs>
<linearGradient id="paint0_linear_1427_10679" x1="1231" y1="515" x2="421" y2="515" gradientUnits="userSpaceOnUse">
<stop offset="0.619792" stop-color="white" stop-opacity="0"/>
<stop offset="1" stop-color="white"/>
</linearGradient>
</defs>
</svg>
